<svg width="51" height="50" viewBox="0 0 51 50" fill="none" xmlns="http://www.w3.org/2000/svg">
<rect x="1" y="0.5" width="49" height="49" rx="24.5" fill="#F3F3F3"/>
<path d="M21.2317 32V18.9091H25.8084C26.7203 18.9091 27.4725 19.0668 28.0648 19.3821C28.6571 19.6932 29.0982 20.1129 29.388 20.6413C29.6777 21.1655 29.8226 21.7472 29.8226 22.3864C29.8226 22.9489 29.7225 23.4134 29.5222 23.7798C29.3262 24.1463 29.0662 24.4361 28.7424 24.6491C28.4228 24.8622 28.0755 25.0199 27.7005 25.1222V25.25C28.101 25.2756 28.5037 25.4162 28.9086 25.6719C29.3134 25.9276 29.6522 26.294 29.9249 26.7713C30.1976 27.2486 30.334 27.8324 30.334 28.5227C30.334 29.179 30.1848 29.7692 29.8865 30.2933C29.5882 30.8175 29.1174 31.233 28.4739 31.5398C27.8304 31.8466 26.9931 32 25.9618 32H21.2317ZM22.8169 30.5938H25.9618C26.9973 30.5938 27.7324 30.3935 28.1671 29.9929C28.606 29.5881 28.8255 29.098 28.8255 28.5227C28.8255 28.0795 28.7125 27.6705 28.4867 27.2955C28.2608 26.9162 27.9391 26.6136 27.5215 26.3878C27.1039 26.1577 26.6096 26.0426 26.0385 26.0426H22.8169V30.5938ZM22.8169 24.6619H25.7573C26.2346 24.6619 26.665 24.5682 27.0485 24.3807C27.4363 24.1932 27.7431 23.929 27.9689 23.5881C28.199 23.2472 28.3141 22.8466 28.3141 22.3864C28.3141 21.8111 28.1138 21.3232 27.7132 20.9226C27.3127 20.5178 26.6777 20.3153 25.8084 20.3153H22.8169V24.6619Z" fill="black"/>
<rect x="1" y="0.5" width="49" height="49" rx="24.5" stroke="#E6E6E6"/>
</svg>
