<?xml version="1.0" ?><svg id="Layer_1" style="enable-background:new 0 0 128 128;" version="1.1" viewBox="0 0 128 128" xml:space="preserve" xmlns="http://www.w3.org/2000/svg" xmlns:xlink="http://www.w3.org/1999/xlink"><g><path d="M59.6,75.2c2.9-1.8,5.8-1.8,9.2,0.1c0.5,0.3,1,0.4,1.5,0.4c1.1,0,2.1-0.6,2.6-1.5c0.8-1.4,0.3-3.3-1.2-4.1   c-5.3-2.9-10.6-2.9-15.3,0c-1.4,0.9-1.8,2.7-1,4.1C56.3,75.6,58.2,76.1,59.6,75.2z"/><path d="M32.1,42.6c0.3,1.7,1,6.8,1,6.8c0.2,1.6,1.8,2.8,3.4,2.5c1.6-0.2,2.8-1.8,2.5-3.4c0,0-0.8-4.6-1-7.6   c-0.4-6.9,1.3-12.8,4.2-17.2c4.6-7,8.6-6.5,15.2-6.1c2,0.1,4.2,0.3,6.7,0.3c2.3,0,4.4-0.2,6.2-0.3c7.2-0.5,12-1.3,17.4,10.6   c1.9,4.2,2.6,9,2.4,13.5c-0.1,2.1-1,8.3-1,8.3c-0.2,1.6,1,3.1,2.6,3.3c0.1,0,0.2,0,0.4,0c1.5,0,2.8-1.1,3-2.6c0,0,0.7-6.3,1-8.4   c1.7-12.5-0.5-22.9-6.7-30.1C83.5,5.7,74.5,2,64,2c-8.2,0-11.5,0.8-13.1,1.3c-0.1-0.1-0.3-0.2-0.4-0.3c-0.4-0.4-0.9-0.8-1.6-1.3   c-1.3-1.1-3.2-0.9-4.2,0.4c-1.1,1.3-0.9,3.2,0.4,4.2c0.3,0.2,0.5,0.4,0.8,0.6c-0.5,0.3-0.9,0.6-1.4,0.9c-1.3-0.2-3-0.7-5.4-1.6   c-1.5-0.6-3.3,0.2-3.9,1.8c-0.6,1.6,0.2,3.3,1.8,3.9c0.7,0.3,1.3,0.5,2,0.7c-0.6,0.7-1.3,1.4-1.9,2.1C32.9,20,29.4,29,32.1,42.6z"/><path d="M58,48c0-2.2-1.8-4-4-4s-4,1.8-4,4c0,2.2,1.8,1,4,1S58,50.2,58,48z"/><path d="M78,48c0-2.2-1.8-4-4-4s-4,1.8-4,4c0,2.2,1.8,1,4,1S78,50.2,78,48z"/><path d="M105.2,98.3c-2.8-6.8-8.8-11.8-17.6-14.9c0.6-0.5,1.2-1.1,1.8-1.6c1.7-1.8,2.4-5.2,3.2-10.6c0.1-0.9,0.3-1.8,0.4-2.6   c0.2-1.4-0.5-2.9-1.8-3.4c-1.8-0.7-3.8,0.4-4.1,2.3c-0.1,0.8-0.3,1.8-0.4,2.8c-0.3,2.2-0.9,6.4-1.6,7.4c-0.3,0.3-0.7,0.6-1,0.9   c0,0-0.1,0-0.2,0.2C79.6,82.2,71.5,86,63.9,86c-8.4,0-17.6-4.8-21-8.3c-0.6-1-1.2-5.1-1.6-7.4c-0.1-1-0.3-1.9-0.4-2.7   C40.7,66.2,39.5,65,38,65c-1.9,0-3.3,1.7-3,3.5c0.1,0.8,0.3,1.7,0.4,2.7c0.8,5.4,1.4,8.8,3.2,10.6c0.5,0.5,1.1,1.1,1.8,1.6   c-8.7,3.1-14.7,8.1-17.5,14.9c-5.5,2.1-10.3,5.1-13.3,9.8c-2.2,3.5-3.6,8-3.6,13.9c0,1.7,1.4,3.1,3.2,3c1.6-0.1,2.8-1.5,2.8-3.1   c0-8.5,3.2-13.1,9.1-16.2l0-0.2l0,0.2c-0.1,0.8-0.1,1.5-0.1,2.3c0,1.7,1.3,3,3,3h20v11c0,1.7,1.3,3,3,3c1.7,0,33,0,33.9,0   c1.7,0,3.1-1.3,3.1-3v-11h20c1.7,0,3-1.4,3-3c0-0.8,0-1.5-0.1-2.3c5.9,3.1,9.1,7.7,9.1,16.2c0,1.6,1.2,3.1,2.8,3.1   c1.7,0.1,3.2-1.3,3.2-3C122,108.1,114.6,102,105.2,98.3z M78,97v0.2c0,7.6-6.2,13.8-13.8,13.8h-0.4c-7.7,0-13.9-6.3-13.8-14v-8   c4.4,1.8,9.3,3,13.9,3c0,0,0,0,0,0c0,0,0,0,0.1,0c0,0,0,0,0,0c4.7,0,9.6-1.2,14-3c0,0,0,0,0,0V97z"/></g></svg>